<svg id="圖層_3" data-name="圖層 3" xmlns="http://www.w3.org/2000/svg" viewBox="0 0 1697.5 958.67"><defs><style>.cls-1{fill:#137bb6;}.cls-2{fill:#0b6ba3;}.cls-3{fill:#0a699c;}.cls-4,.cls-5,.cls-8{fill:#164471;}.cls-4{opacity:0.5;}.cls-5{opacity:0.9;}.cls-6{fill:#065e91;}.cls-7{opacity:0.6;}</style></defs><title>PriceScannerbg</title><polygon class="cls-1" points="1696.67 957.67 0 958.67 0 0 1697.5 0.17 1696.67 957.67"/><polygon class="cls-2" points="0 923.84 1697.34 626.08 1697.34 958.34 0 958.34 0 923.84"/><polygon class="cls-3" points="56.59 322.15 1046.69 1 1280.71 1 1451.73 958.34 170.6 958.34 56.59 322.15"/><polygon class="cls-4" points="0 1 1050.96 0.29 949.91 504.2 0.13 337.67 0 1"/><polygon class="cls-5" points="0 1 1026.54 1 930.78 480 0 313.48 0 1"/><polygon class="cls-6" points="170.6 958.34 159.45 896.11 1403.99 691.09 1451.73 958.34 170.6 958.34"/><g class="cls-7"><path class="cls-8" d="M319.57,337.87c-50.07-46.39-95.87-10.71-97.79-9.17L212.35,317a90.64,90.64,0,0,1,36.14-16.12c19.91-4.07,50.17-2.87,81.27,25.94Z" transform="translate(5.67 6.67)"/></g><g class="cls-7"><path class="cls-8" d="M261.68,532.51c-83.18,0-150.84-67.66-150.84-150.84S178.5,230.83,261.68,230.83,412.52,298.5,412.52,381.67,344.85,532.51,261.68,532.51Zm0-261.68A110.84,110.84,0,1,0,372.52,381.67,111,111,0,0,0,261.68,270.83Z" transform="translate(5.67 6.67)"/></g><g class="cls-7"><rect class="cls-8" x="397.91" y="433.66" width="40" height="144.68" transform="translate(-231.4 471.63) rotate(-46.86)"/><path class="cls-8" d="M497.25,542.68a11,11,0,0,1,.69,15.54l-21.15,23.13a11,11,0,0,1-15.55.7l-67-61.28a11,11,0,0,1-.69-15.54l21.16-23.14a11,11,0,0,1,15.54-.69Z" transform="translate(5.67 6.67)"/></g><path class="cls-1" d="M254.68,525.6c-83.18,0-150.84-67.66-150.84-150.83S171.5,223.93,254.68,223.93s150.84,67.66,150.84,150.84S337.85,525.6,254.68,525.6Zm0-261.67A110.84,110.84,0,1,0,365.52,374.77,111,111,0,0,0,254.68,263.93Z" transform="translate(5.67 6.67)"/><rect class="cls-1" x="384.91" y="437.98" width="40" height="144.68" transform="translate(-238.66 463.51) rotate(-46.86)"/><path class="cls-1" d="M484.25,547a11,11,0,0,1,.69,15.54l-21.15,23.14a11,11,0,0,1-15.55.69l-67-61.28a11,11,0,0,1-.69-15.54l21.16-23.13a11,11,0,0,1,15.54-.7Z" transform="translate(5.67 6.67)"/><path class="cls-1" d="M311.09,324.56c-53.95-41.81-96.44-2.23-98.22-.53l-10.42-10.79A90.81,90.81,0,0,1,237,294c19.48-5.81,49.73-7.28,83.25,18.69Z" transform="translate(5.67 6.67)"/></svg>