<?xml version="1.0" encoding="UTF-8"?>
<svg width="68px" height="68px" viewBox="0 0 68 68" version="1.1" xmlns="http://www.w3.org/2000/svg" xmlns:xlink="http://www.w3.org/1999/xlink">
    <!-- Generator: Sketch 51 (57462) - http://www.bohemiancoding.com/sketch -->
    <title>ico_list_bglight_qrcode_h</title>
    <desc>Created with Sketch.</desc>
    <defs></defs>
    <g id="Page-1" stroke="none" stroke-width="1" fill="none" fill-rule="evenodd">
        <g id="ico_list_bglight_qrcode_h">
            <g>
                <rect id="Rectangle" stroke="#E6E6E6" fill="#E6E6E6" x="0.5" y="0.5" width="67" height="67"></rect>
                <g id="二维码" transform="translate(10.074074, 10.074074)" fill="#5F5F5F" fill-rule="nonzero">
                    <path d="M8.11772487,7.72522983 L14.1601459,7.72522983 L14.1601459,14.2728269 L8.11772487,14.2728269 L8.11772487,7.72522983 Z M33.6209086,7.69047619 L39.6633296,7.69047619 L39.6633296,14.2380733 L33.6209086,14.2380733 L33.6209086,7.69047619 Z M8.14550608,33.2274949 L14.1879271,33.2274949 L14.1879271,39.775092 L8.14550608,39.775092 L8.14550608,33.2274949 Z M26.6130893,31.0241103 L32.6555103,31.0241103 L32.6555103,37.5717074 L26.6130893,37.5717074 L26.6130893,31.0241103 Z M40.6842903,31.0241103 L46.7267113,31.0241103 L46.7267113,37.5717074 L40.6842903,37.5717074 L40.6842903,31.0241103 Z M25.5851832,43.0766935 L47.8518519,43.0766935 L47.8518519,47.8518519 L25.5851832,47.8518519 L25.5851832,43.0766935 Z" id="Combined-Shape"></path>
                    <path d="M17.9191162,4.29647451 L17.9191162,17.9065971 L4.29781506,17.9065971 L4.29781506,4.29647451 L17.9191162,4.29647451 Z M22.2169312,0 L0,0 L0,22.2169312 L22.2169312,22.2169312 L22.2169312,0 Z" id="Shape"></path>
                    <path d="M43.4286948,4.43889072 L43.4286948,18.0628729 L29.922577,18.0628729 L29.922577,4.43889072 L43.5185973,4.43889072 L43.4286948,4.43889072 Z M47.7025201,0.142416226 L25.6349206,0.142416226 L25.6349206,22.3593474 L47.7094356,22.3593474 L47.7094356,0.142416226 L47.7025201,0.142416226 Z" id="Shape"></path>
                    <path d="M17.9135269,29.9552941 L17.9135269,43.4129611 L4.2964745,43.4129611 L4.2964745,29.9275749 L17.9204567,29.9275749 L17.9135269,29.9552941 Z M22.2100014,25.4925044 L0,25.4925044 L0,47.7094356 L22.2169312,47.7094356 L22.2169312,25.4925044 L22.2100014,25.4925044 Z" id="Shape"></path>
                </g>
            </g>
        </g>
    </g>
</svg>