<?xml version="1.0" encoding="UTF-8"?>
<svg width="220px" height="220px" viewBox="0 0 220 220" version="1.1" xmlns="http://www.w3.org/2000/svg" xmlns:xlink="http://www.w3.org/1999/xlink">
    <!-- Generator: Sketch 51.2 (57519) - http://www.bohemiancoding.com/sketch -->
    <title>img_list_bglight_missing_all@1x</title>
    <desc>Created with Sketch.</desc>
    <defs></defs>
    <g id="img_list_bglight_missing_all" stroke="none" stroke-width="1" fill="none" fill-rule="evenodd">
        <g>
            <rect id="Rectangle-2" fill-rule="nonzero" x="0" y="0" width="220" height="220"></rect>
            <g id="Business-solutions-" transform="translate(19.000000, 2.000000)">
                <path d="M71.8026531,112 L71.8026531,86.2370128 C71.8026531,83.5722372 73.3881123,81.7112179 75.3543205,82.2250577 C76.9907605,82.6533333 79.2564239,86.9206154 85.1201427,86.5765385 C90.9843207,86.2315513 94,80.7590897 94,76.4949936 C94,72.2308974 90.9843207,66.7652628 85.1201427,66.4207308 C79.2564239,66.0761987 76.9907605,70.34075 75.3543205,70.7681154 C73.3881123,71.2819551 71.8026531,69.4623526 71.8026531,66.7975769 L71.8026531,42.8878718 C71.8026531,41.8451731 70.9479198,41 69.8929372,41 L9.54766081,41 C4.2745853,41 0,45.2267756 0,50.4407244 L0,112 L26.798026,112 C29.2983852,112 31.006474,110.543135 30.5242225,108.739006 C30.1228056,107.237994 26.1214961,105.157147 26.4448342,99.7766218 C26.7686317,94.3960962 31.8979503,91.6307372 35.8997191,91.6307372 C39.9010285,91.6307372 45.0340214,94.3960962 45.3573596,99.7766218 C45.681157,105.157147 41.6761733,107.237994 41.2752156,108.739006 C40.7925048,110.543135 42.5423888,112 45.0427479,112 L71.8026531,112 Z" id="Fill-1" fill="#FFB339"></path>
                <path d="M72,111.961401 L45.8739502,111.961401 C43.1714459,111.961401 41.2850353,110.392632 41.8054562,108.447267 C42.2397544,106.828862 46.5675377,104.587048 46.2184412,98.7851068 C45.8684236,92.9836212 40.3192631,90 35.9951642,90 C31.6710653,90 26.127892,92.9836212 25.7787955,98.7851068 C25.4292385,104.586592 29.7542585,106.828862 30.1876355,108.447267 C30.7089775,110.392632 28.8635558,111.961401 26.1610516,111.961401 L0,111.961401 L0,173.554143 C0,178.770926 4.28633383,183 9.5739022,183 L72,183 L72,156.48712 C72,154.013519 70.5225573,152.32362 68.6927943,152.800854 C67.1711389,153.197486 65.0604407,157.156522 59.6043113,156.836393 C54.1481818,156.516264 51.3434356,151.441102 51.3434356,147.482522 C51.3434356,143.523486 54.1481818,138.445137 59.6043113,138.125008 C65.0604407,137.804879 67.1711389,141.767102 68.6927943,142.16419 C70.5225573,142.640968 72,140.910085 72,138.436485 L72,111.961401 Z" id="Fill-3" fill="#03C18D"></path>
                <path d="M118.620195,92.126055 C119.137529,93.0420635 120.30892,93.3701244 121.236425,92.8590448 L142.46696,81.1467651 C144.836532,79.8395543 147.269385,80.3044217 147.777943,82.2645516 C148.201047,83.8961631 145.517842,87.95872 148.7036,92.8832948 C151.888434,97.8087847 158.23547,97.7442706 162.027247,95.6528248 C165.819024,93.5609214 169.198783,88.2597857 166.626434,82.9961688 C164.054086,77.7325519 159.149118,77.856547 157.965717,76.6445059 C156.543974,75.1885924 157.383255,72.9182458 159.753289,71.611035 L181.013848,59.8822836 C181.941353,59.3707465 182.273463,58.2131534 181.755667,57.2971449 L152.129549,4.87053237 C149.540572,0.289575109 143.683617,-1.3507297 139.047478,1.20695618 L85.9861518,30.478962 C85.0586468,30.9900416 84.7265371,32.1476347 85.2443325,33.0636431 L97.4626411,54.6859261 C98.6908463,56.8583577 100.824847,57.6279512 102.192085,56.3239432 C103.329757,55.2386425 103.215667,50.7414163 108.159435,48.3832207 C113.102279,46.0250252 118.079767,49.1253614 120.044248,52.6013435 C122.00873,56.0777831 122.069701,61.8936588 117.444185,64.8141792 C112.818208,67.734242 109.001949,65.2758438 107.469811,65.6638434 C105.62912,66.1300834 105.19262,68.3642838 106.420363,70.5367154 L118.620195,92.126055 Z" id="Fill-5" stroke="#FC4B53" stroke-width="2" stroke-dasharray="2,2"></path>
                <path d="M72.4334889,112 L72.4334889,137.762987 C72.4334889,140.427763 70.8311631,142.288782 68.8440378,141.774942 C67.1901888,141.346667 64.9004226,137.079385 58.9743239,137.423462 C53.047761,137.768449 50,143.24091 50,147.505006 C50,151.769103 53.047761,157.234737 58.9743239,157.579269 C64.9004226,157.923801 67.1901888,153.65925 68.8440378,153.231885 C70.8311631,152.718045 72.4334889,154.537647 72.4334889,157.202423 L72.4334889,183 L135.350768,183 C140.67994,183 145,178.773224 145,173.559276 L145,113.887872 C145,112.845173 144.136174,112 143.070432,112 L117.916889,112 C115.38993,112 113.66367,113.456865 114.151052,115.260994 C114.556739,116.762006 118.600616,118.842853 118.273838,124.223378 C117.946596,129.603904 112.76271,132.369263 108.718369,132.369263 C104.674492,132.369263 99.4868932,129.603904 99.1601153,124.223378 C98.8328732,118.842853 102.880463,116.762006 103.285686,115.260994 C103.773532,113.456865 102.005033,112 99.4780739,112 L72.4334889,112 Z" id="Fill-8" fill="#0082C3"></path>
            </g>
        </g>
    </g>
</svg>