<?xml version="1.0" encoding="UTF-8"?>
<svg width="220px" height="220px" viewBox="0 0 220 220" version="1.1" xmlns="http://www.w3.org/2000/svg" xmlns:xlink="http://www.w3.org/1999/xlink">
    <!-- Generator: Sketch 51.2 (57519) - http://www.bohemiancoding.com/sketch -->
    <title>img_list_bglight_missing_info@1x</title>
    <desc>Created with Sketch.</desc>
    <defs>
        <polygon id="path-1" points="0 155 178 155 178 0 0 0"></polygon>
    </defs>
    <g id="img_list_bglight_missing_info" stroke="none" stroke-width="1" fill="none" fill-rule="evenodd">
        <g>
            <rect id="Rectangle-2" fill-rule="nonzero" x="0" y="0" width="220" height="220"></rect>
            <g id="Web-Search" transform="translate(21.000000, 1.000000)">
                <path d="M160.47733,120 L8.52267,120 C3.8155975,120 0,116.210769 0,111.536224 L0,8.46377622 C0,3.78923077 3.8155975,0 8.52267,0 L160.47733,0 C165.184403,0 169,3.78923077 169,8.46377622 L169,111.536224 C169,116.210769 165.184403,120 160.47733,120 Z" id="Fill-1" fill="#5F5F5F"></path>
                <mask id="mask-2" fill="white">
                    <use xlink:href="#path-1"></use>
                </mask>
                <g id="Clip-4"></g>
                <polygon id="Fill-3" fill="#FAFAFA" mask="url(#mask-2)" points="12 109 157 109 157 13 12 13"></polygon>
                <path d="M142.856166,42 L25.1434138,42 C23.9595931,42 23,41.0996053 23,39.9884211 L23,29.0115789 C23,27.9003947 23.9595931,27 25.1434138,27 L142.856166,27 C144.039986,27 145,27.9003947 145,29.0115789 L145,39.9884211 C145,41.0996053 144.039986,42 142.856166,42" id="Fill-5" fill="#E6E6E6" mask="url(#mask-2)"></path>
                <path d="M142.925144,42 L118,42 L118,27 L142.925144,27 C144.070875,27 145,27.9003947 145,29.0115789 L145,39.9884211 C145,41.0996053 144.070875,42 142.925144,42" id="Fill-6" fill="#FC4B53" mask="url(#mask-2)"></path>
                <path d="M48.8408653,38 L34.1587214,38 C32.4144392,38 31,36.6716698 31,35.0331888 L31,34.9668112 C31,33.3283302 32.4144392,32 34.1587214,32 L48.8408653,32 C50.5855608,32 52,33.3283302 52,34.9668112 L52,35.0331888 C52,36.6716698 50.5855608,38 48.8408653,38" id="Fill-7" fill="#898989" mask="url(#mask-2)"></path>
                <path d="M68.9480319,38 L61.0519681,38 C59.3664575,38 58,36.6716698 58,35.0331888 L58,34.9668112 C58,33.3283302 59.3664575,32 61.0519681,32 L68.9480319,32 C70.6335425,32 72,33.3283302 72,34.9668112 L72,35.0331888 C72,36.6716698 70.6335425,38 68.9480319,38" id="Fill-8" fill="#898989" mask="url(#mask-2)"></path>
                <path d="M86.5086781,38 L79.4908652,38 C77.5629649,38 76,36.6716698 76,35.0331888 L76,34.9668112 C76,33.3283302 77.5629649,32 79.4908652,32 L86.5086781,32 C88.4370351,32 90,33.3283302 90,34.9668112 L90,35.0331888 C90,36.6716698 88.4370351,38 86.5086781,38" id="Fill-9" fill="#898989" mask="url(#mask-2)"></path>
                <path d="M144.936629,73 L25.0633713,73 C24.4760984,73 24,72.5276023 24,71.9448944 L24,57.0546846 C24,56.4719766 24.4760984,56 25.0633713,56 L144.936629,56 C145.523902,56 146,56.4719766 146,57.0546846 L146,71.9448944 C146,72.5276023 145.523902,73 144.936629,73" id="Fill-10" fill="#E6E6E6" mask="url(#mask-2)"></path>
                <path d="M144.936629,98 L25.0633713,98 C24.4760984,98 24,97.527614 24,96.9449205 L24,82.0550795 C24,81.472386 24.4760984,81 25.0633713,81 L144.936629,81 C145.523902,81 146,81.472386 146,82.0550795 L146,96.9449205 C146,97.527614 145.523902,98 144.936629,98" id="Fill-11" fill="#E6E6E6" mask="url(#mask-2)"></path>
                <path d="M175.968739,152.958588 C173.264016,155.680471 168.879264,155.680471 166.171319,152.958588 L149.686407,136.367123 L142,128.631183 C146.315473,126.637617 149.849133,123.230712 152.025398,119 L175.968739,143.097986 C178.677087,145.819463 178.677087,150.235897 175.968739,152.958588" id="Fill-12" fill="#006EA5" mask="url(#mask-2)"></path>
                <path d="M156,108 C156,121.254734 145.254689,132 132.000227,132 C118.745766,132 108,121.254734 108,108 C108,94.7452657 118.745766,84 132.000227,84 C145.254689,84 156,94.7452657 156,108" id="Fill-14" fill="#C8C8C8" opacity="0.379185268" mask="url(#mask-2)"></path>
                <path d="M140.871939,127.936382 C138.018582,129.246189 134.843545,129.977639 131.500213,129.977639 C119.083401,129.977639 109.018467,119.916795 109.018467,107.5 C109.018467,95.0874579 119.083401,85.0223612 131.500213,85.0223612 C143.912765,85.0223612 153.977698,95.0874579 153.977698,107.5 C153.977698,111.218489 153.074014,114.726899 151.476697,117.813875 C149.174668,122.260413 145.436799,125.841117 140.871939,127.936382 M131.500213,74 C112.997914,74 98,88.9981339 98,107.5 C98,126.002291 112.997914,141 131.500213,141 C137.915048,141 143.90893,139.196039 149.002537,136.066963 C153.215468,133.481796 156.811883,129.989121 159.522934,125.860254 C162.985565,120.587007 165,114.279099 165,107.5 C165,88.9981339 149.998251,74 131.500213,74" id="Fill-13" fill="#0082C3" mask="url(#mask-2)"></path>
            </g>
        </g>
    </g>
</svg>